<svg width="403" height="74" viewBox="0 0 403 74" fill="none" xmlns="http://www.w3.org/2000/svg">
<path d="M14.52 5.8C21.9173 5.8 27.592 7.21866 31.544 10.056C35.5467 12.8427 37.548 17.0227 37.548 22.596C37.548 25.636 36.9907 28.2453 35.876 30.424C34.812 32.552 33.2413 34.3 31.164 35.668C29.1373 36.9853 26.6547 37.948 23.716 38.556C20.7773 39.164 17.4587 39.468 13.76 39.468H7.908V59H0.536V7.092C2.61333 6.58533 4.91867 6.256 7.452 6.104C10.036 5.90133 12.392 5.8 14.52 5.8ZM15.128 12.26C11.9867 12.26 9.58 12.336 7.908 12.488V33.16H13.456C15.9893 33.16 18.2693 33.008 20.296 32.704C22.3227 32.3493 24.02 31.792 25.388 31.032C26.8067 30.2213 27.896 29.132 28.656 27.764C29.416 26.396 29.796 24.648 29.796 22.52C29.796 20.4933 29.3907 18.8213 28.58 17.504C27.82 16.1867 26.756 15.148 25.388 14.388C24.0707 13.5773 22.5253 13.02 20.752 12.716C18.9787 12.412 17.104 12.26 15.128 12.26ZM46.3183 59V1.24L53.3863 0.0239983V20.24C54.7036 19.7333 56.0969 19.3533 57.5663 19.1C59.0863 18.796 60.5809 18.644 62.0503 18.644C65.1916 18.644 67.8009 19.1 69.8783 20.012C71.9556 20.8733 73.6023 22.1147 74.8183 23.736C76.0849 25.3067 76.9716 27.2067 77.4783 29.436C77.9849 31.6653 78.2383 34.1227 78.2383 36.808V59H71.1703V38.328C71.1703 35.896 70.9929 33.8187 70.6383 32.096C70.3343 30.3733 69.8023 28.98 69.0423 27.916C68.2823 26.852 67.2689 26.092 66.0023 25.636C64.7356 25.1293 63.1649 24.876 61.2903 24.876C60.5303 24.876 59.7449 24.9267 58.9343 25.028C58.1236 25.1293 57.3383 25.256 56.5783 25.408C55.8689 25.5093 55.2103 25.636 54.6023 25.788C54.0449 25.94 53.6396 26.0667 53.3863 26.168V59H46.3183ZM83.8385 66.372C84.3959 66.6253 85.1052 66.8533 85.9665 67.056C86.8785 67.3093 87.7652 67.436 88.6265 67.436C91.4132 67.436 93.5919 66.8027 95.1625 65.536C96.7332 64.32 98.1519 62.3187 99.4185 59.532C96.2265 53.452 93.2372 47.0173 90.4505 40.228C87.7145 33.388 85.4345 26.472 83.6105 19.48H91.2105C91.7679 21.76 92.4265 24.2173 93.1865 26.852C93.9972 29.4867 94.8839 32.1973 95.8465 34.984C96.8092 37.7707 97.8479 40.5573 98.9625 43.344C100.077 46.1307 101.243 48.816 102.459 51.4C104.384 46.08 106.056 40.8107 107.475 35.592C108.893 30.3733 110.236 25.0027 111.503 19.48H118.799C116.975 26.928 114.948 34.0973 112.719 40.988C110.489 47.828 108.083 54.2373 105.499 60.216C104.485 62.496 103.421 64.4467 102.307 66.068C101.243 67.74 100.052 69.108 98.7345 70.172C97.4172 71.236 95.9225 72.0213 94.2505 72.528C92.6292 73.0347 90.7799 73.288 88.7025 73.288C88.1452 73.288 87.5625 73.2373 86.9545 73.136C86.3465 73.0853 85.7385 72.984 85.1305 72.832C84.5732 72.7307 84.0412 72.604 83.5345 72.452C83.0785 72.3 82.7492 72.1733 82.5465 72.072L83.8385 66.372ZM140.844 18.644C141.452 18.644 142.136 18.6947 142.896 18.796C143.707 18.8467 144.492 18.948 145.252 19.1C146.012 19.2013 146.696 19.328 147.304 19.48C147.963 19.5813 148.444 19.6827 148.748 19.784L147.532 25.94C146.975 25.7373 146.037 25.5093 144.72 25.256C143.453 24.952 141.807 24.8 139.78 24.8C138.463 24.8 137.145 24.952 135.828 25.256C134.561 25.5093 133.725 25.6867 133.32 25.788V59H126.252V21.152C127.924 20.544 130.001 19.9867 132.484 19.48C134.967 18.9227 137.753 18.644 140.844 18.644ZM153.364 39.316C153.364 35.82 153.871 32.78 154.884 30.196C155.898 27.5613 157.24 25.3827 158.912 23.66C160.584 21.9373 162.51 20.6453 164.688 19.784C166.867 18.9227 169.096 18.492 171.376 18.492C176.696 18.492 180.775 20.164 183.612 23.508C186.45 26.8013 187.868 31.8427 187.868 38.632C187.868 38.936 187.868 39.3413 187.868 39.848C187.868 40.304 187.843 40.7347 187.792 41.14H160.736C161.04 45.244 162.231 48.36 164.308 50.488C166.386 52.616 169.628 53.68 174.036 53.68C176.519 53.68 178.596 53.4773 180.268 53.072C181.991 52.616 183.283 52.1853 184.144 51.78L185.132 57.708C184.271 58.164 182.751 58.6453 180.572 59.152C178.444 59.6587 176.012 59.912 173.276 59.912C169.831 59.912 166.842 59.4053 164.308 58.392C161.826 57.328 159.774 55.884 158.152 54.06C156.531 52.236 155.315 50.0827 154.504 47.6C153.744 45.0667 153.364 42.3053 153.364 39.316ZM180.496 35.44C180.547 32.248 179.736 29.6387 178.064 27.612C176.443 25.5347 174.188 24.496 171.3 24.496C169.679 24.496 168.235 24.8253 166.968 25.484C165.752 26.092 164.714 26.9027 163.852 27.916C162.991 28.9293 162.307 30.0947 161.8 31.412C161.344 32.7293 161.04 34.072 160.888 35.44H180.496ZM230.093 59C229.333 57.48 228.421 55.808 227.357 53.984C226.293 52.1093 225.128 50.184 223.861 48.208C222.595 46.1813 221.277 44.18 219.909 42.204C218.541 40.1773 217.224 38.2773 215.957 36.504C214.691 38.2773 213.373 40.1773 212.005 42.204C210.637 44.18 209.32 46.1813 208.053 48.208C206.837 50.184 205.672 52.1093 204.557 53.984C203.493 55.808 202.581 57.48 201.821 59H193.689C195.969 54.5413 198.604 50.0067 201.593 45.396C204.633 40.7853 207.851 36.048 211.245 31.184L194.373 6.332H202.885L215.881 25.94L228.725 6.332H237.161L220.593 30.88C224.039 35.7947 227.281 40.5827 230.321 45.244C233.361 49.9053 236.047 54.4907 238.377 59H230.093ZM283.689 59C282.828 56.72 282.017 54.4907 281.257 52.312C280.497 50.0827 279.712 47.828 278.901 45.548H255.037L250.249 59H242.573C244.6 53.4267 246.5 48.284 248.273 43.572C250.046 38.8093 251.769 34.3 253.441 30.044C255.164 25.788 256.861 21.7347 258.533 17.884C260.205 13.9827 261.953 10.132 263.777 6.332H270.541C272.365 10.132 274.113 13.9827 275.785 17.884C277.457 21.7347 279.129 25.788 280.801 30.044C282.524 34.3 284.272 38.8093 286.045 43.572C287.818 48.284 289.718 53.4267 291.745 59H283.689ZM276.773 39.468C275.152 35.06 273.53 30.804 271.909 26.7C270.338 22.5453 268.692 18.568 266.969 14.768C265.196 18.568 263.498 22.5453 261.877 26.7C260.306 30.804 258.736 35.06 257.165 39.468H276.773ZM322.531 51.704C322.025 50.488 321.341 48.9427 320.479 47.068C319.669 45.1933 318.782 43.1667 317.819 40.988C316.857 38.8093 315.818 36.58 314.703 34.3C313.639 31.9693 312.626 29.7907 311.663 27.764C310.701 25.6867 309.789 23.8373 308.927 22.216C308.117 20.5947 307.458 19.3533 306.951 18.492C306.394 24.4707 305.938 30.956 305.583 37.948C305.229 44.8893 304.925 51.9067 304.671 59H297.451C297.654 54.44 297.882 49.8547 298.135 45.244C298.389 40.5827 298.667 36.0227 298.971 31.564C299.326 27.0547 299.681 22.672 300.035 18.416C300.441 14.16 300.871 10.132 301.327 6.332H307.787C309.155 8.56133 310.625 11.196 312.195 14.236C313.766 17.276 315.337 20.468 316.907 23.812C318.478 27.1053 319.998 30.424 321.467 33.768C322.937 37.0613 324.279 40.076 325.495 42.812C326.711 40.076 328.054 37.0613 329.523 33.768C330.993 30.424 332.513 27.1053 334.083 23.812C335.654 20.468 337.225 17.276 338.795 14.236C340.366 11.196 341.835 8.56133 343.203 6.332H349.663C351.386 23.3053 352.678 40.8613 353.539 59H346.319C346.066 51.9067 345.762 44.8893 345.407 37.948C345.053 30.956 344.597 24.4707 344.039 18.492C343.533 19.3533 342.849 20.5947 341.987 22.216C341.177 23.8373 340.29 25.6867 339.327 27.764C338.365 29.7907 337.326 31.9693 336.211 34.3C335.147 36.58 334.134 38.8093 333.171 40.988C332.209 43.1667 331.297 45.1933 330.435 47.068C329.625 48.9427 328.966 50.488 328.459 51.704H322.531ZM379.083 5.8C386.48 5.8 392.155 7.21866 396.107 10.056C400.109 12.8427 402.111 17.0227 402.111 22.596C402.111 25.636 401.553 28.2453 400.438 30.424C399.375 32.552 397.804 34.3 395.727 35.668C393.7 36.9853 391.217 37.948 388.279 38.556C385.34 39.164 382.021 39.468 378.323 39.468H372.471V59H365.099V7.092C367.176 6.58533 369.481 6.256 372.015 6.104C374.599 5.90133 376.955 5.8 379.083 5.8ZM379.691 12.26C376.549 12.26 374.143 12.336 372.471 12.488V33.16H378.019C380.552 33.16 382.832 33.008 384.859 32.704C386.885 32.3493 388.583 31.792 389.951 31.032C391.369 30.2213 392.459 29.132 393.219 27.764C393.979 26.396 394.359 24.648 394.359 22.52C394.359 20.4933 393.953 18.8213 393.143 17.504C392.383 16.1867 391.319 15.148 389.951 14.388C388.633 13.5773 387.088 13.02 385.315 12.716C383.541 12.412 381.667 12.26 379.691 12.26Z" fill="url(#paint0_linear_1_2)"/>
<defs>
<linearGradient id="paint0_linear_1_2" x1="-312.326" y1="-149.5" x2="402.638" y2="39.4378" gradientUnits="userSpaceOnUse">
<stop offset="0.684111" stop-color="#F2A231"/>
<stop offset="1" stop-color="#F95320"/>
</linearGradient>
</defs>
</svg>
